<mxfile host="app.diagrams.net" modified="2022-07-29T08:08:14.511Z" agent="5.0 (Macintosh; Intel Mac OS X 10_15_7) AppleWebKit/605.1.15 (KHTML, like Gecko) Version/15.5 Safari/605.1.15" etag="6GxhKP-8QGi0FJtuDdNY" version="19.0.3" type="github">
  <diagram id="C5RBs43oDa-KdzZeNtuy" name="Page-1">
    <mxGraphModel dx="830" dy="948" grid="1" gridSize="10" guides="1" tooltips="1" connect="1" arrows="1" fold="1" page="1" pageScale="1" pageWidth="827" pageHeight="1169" math="0" shadow="0">
      <root>
        <mxCell id="WIyWlLk6GJQsqaUBKTNV-0" />
        <mxCell id="WIyWlLk6GJQsqaUBKTNV-1" parent="WIyWlLk6GJQsqaUBKTNV-0" />
        <mxCell id="WIyWlLk6GJQsqaUBKTNV-2" value="" style="rounded=0;html=1;jettySize=auto;orthogonalLoop=1;fontSize=11;endArrow=block;endFill=0;endSize=8;strokeWidth=1;shadow=0;labelBackgroundColor=none;edgeStyle=orthogonalEdgeStyle;" parent="WIyWlLk6GJQsqaUBKTNV-1" source="WIyWlLk6GJQsqaUBKTNV-3" edge="1">
          <mxGeometry relative="1" as="geometry">
            <mxPoint x="220" y="170" as="targetPoint" />
            <Array as="points">
              <mxPoint x="220" y="60" />
            </Array>
          </mxGeometry>
        </mxCell>
        <mxCell id="WIyWlLk6GJQsqaUBKTNV-3" value="Home Page" style="rounded=1;whiteSpace=wrap;html=1;fontSize=12;glass=0;strokeWidth=1;shadow=0;" parent="WIyWlLk6GJQsqaUBKTNV-1" vertex="1">
          <mxGeometry x="340" y="40" width="120" height="40" as="geometry" />
        </mxCell>
        <mxCell id="y8eB7wxrnuaL9YhSBPWz-0" value="About US" style="rounded=1;whiteSpace=wrap;html=1;fontSize=12;glass=0;strokeWidth=1;shadow=0;" vertex="1" parent="WIyWlLk6GJQsqaUBKTNV-1">
          <mxGeometry x="150" y="170" width="120" height="40" as="geometry" />
        </mxCell>
        <mxCell id="y8eB7wxrnuaL9YhSBPWz-1" value="How it works" style="rounded=1;whiteSpace=wrap;html=1;fontSize=12;glass=0;strokeWidth=1;shadow=0;" vertex="1" parent="WIyWlLk6GJQsqaUBKTNV-1">
          <mxGeometry x="320" y="170" width="120" height="40" as="geometry" />
        </mxCell>
        <mxCell id="y8eB7wxrnuaL9YhSBPWz-4" value="" style="rounded=0;html=1;jettySize=auto;orthogonalLoop=1;fontSize=11;endArrow=block;endFill=0;endSize=8;strokeWidth=1;shadow=0;labelBackgroundColor=none;edgeStyle=orthogonalEdgeStyle;" edge="1" parent="WIyWlLk6GJQsqaUBKTNV-1" source="WIyWlLk6GJQsqaUBKTNV-3">
          <mxGeometry relative="1" as="geometry">
            <mxPoint x="340" y="60" as="sourcePoint" />
            <mxPoint x="220" y="170" as="targetPoint" />
            <Array as="points">
              <mxPoint x="220" y="60" />
            </Array>
          </mxGeometry>
        </mxCell>
        <mxCell id="y8eB7wxrnuaL9YhSBPWz-11" value="" style="endArrow=classic;html=1;rounded=0;entryX=0.417;entryY=-0.05;entryDx=0;entryDy=0;entryPerimeter=0;" edge="1" parent="WIyWlLk6GJQsqaUBKTNV-1" target="y8eB7wxrnuaL9YhSBPWz-1">
          <mxGeometry width="50" height="50" relative="1" as="geometry">
            <mxPoint x="370" y="80" as="sourcePoint" />
            <mxPoint x="370" y="160" as="targetPoint" />
          </mxGeometry>
        </mxCell>
        <mxCell id="y8eB7wxrnuaL9YhSBPWz-12" value="" style="endArrow=classic;html=1;rounded=0;entryX=0.417;entryY=-0.05;entryDx=0;entryDy=0;entryPerimeter=0;" edge="1" parent="WIyWlLk6GJQsqaUBKTNV-1" target="y8eB7wxrnuaL9YhSBPWz-1">
          <mxGeometry width="50" height="50" relative="1" as="geometry">
            <mxPoint x="370" y="80" as="sourcePoint" />
            <mxPoint x="370.03999999999996" y="168" as="targetPoint" />
            <Array as="points">
              <mxPoint x="370" y="130" />
            </Array>
          </mxGeometry>
        </mxCell>
        <mxCell id="y8eB7wxrnuaL9YhSBPWz-15" value="" style="endArrow=classic;html=1;rounded=0;entryX=0.417;entryY=-0.05;entryDx=0;entryDy=0;entryPerimeter=0;exitX=0.942;exitY=0.975;exitDx=0;exitDy=0;exitPerimeter=0;" edge="1" parent="WIyWlLk6GJQsqaUBKTNV-1" source="WIyWlLk6GJQsqaUBKTNV-3">
          <mxGeometry width="50" height="50" relative="1" as="geometry">
            <mxPoint x="500" y="80" as="sourcePoint" />
            <mxPoint x="500.03999999999996" y="168" as="targetPoint" />
            <Array as="points">
              <mxPoint x="500" y="130" />
            </Array>
          </mxGeometry>
        </mxCell>
        <mxCell id="y8eB7wxrnuaL9YhSBPWz-16" value="company insider" style="rounded=1;whiteSpace=wrap;html=1;fontSize=12;glass=0;strokeWidth=1;shadow=0;" vertex="1" parent="WIyWlLk6GJQsqaUBKTNV-1">
          <mxGeometry x="410" y="260" width="120" height="40" as="geometry" />
        </mxCell>
        <mxCell id="y8eB7wxrnuaL9YhSBPWz-17" value="Job seeker" style="rounded=1;whiteSpace=wrap;html=1;fontSize=12;glass=0;strokeWidth=1;shadow=0;" vertex="1" parent="WIyWlLk6GJQsqaUBKTNV-1">
          <mxGeometry x="220" y="260" width="120" height="40" as="geometry" />
        </mxCell>
        <mxCell id="y8eB7wxrnuaL9YhSBPWz-20" value="" style="endArrow=classic;html=1;rounded=0;" edge="1" parent="WIyWlLk6GJQsqaUBKTNV-1">
          <mxGeometry width="50" height="50" relative="1" as="geometry">
            <mxPoint x="330" y="212" as="sourcePoint" />
            <mxPoint x="330" y="260" as="targetPoint" />
            <Array as="points" />
          </mxGeometry>
        </mxCell>
        <mxCell id="y8eB7wxrnuaL9YhSBPWz-21" value="" style="endArrow=classic;html=1;rounded=0;" edge="1" parent="WIyWlLk6GJQsqaUBKTNV-1">
          <mxGeometry width="50" height="50" relative="1" as="geometry">
            <mxPoint x="430" y="210" as="sourcePoint" />
            <mxPoint x="430" y="258" as="targetPoint" />
            <Array as="points">
              <mxPoint x="430" y="238" />
            </Array>
          </mxGeometry>
        </mxCell>
        <mxCell id="y8eB7wxrnuaL9YhSBPWz-22" value="Sign in/ Sign Up" style="rounded=1;whiteSpace=wrap;html=1;fontSize=12;glass=0;strokeWidth=1;shadow=0;" vertex="1" parent="WIyWlLk6GJQsqaUBKTNV-1">
          <mxGeometry x="470" y="170" width="120" height="40" as="geometry" />
        </mxCell>
        <mxCell id="y8eB7wxrnuaL9YhSBPWz-23" value="Sign in/ Sign Up" style="rounded=1;whiteSpace=wrap;html=1;fontSize=12;glass=0;strokeWidth=1;shadow=0;" vertex="1" parent="WIyWlLk6GJQsqaUBKTNV-1">
          <mxGeometry x="320" y="370" width="120" height="40" as="geometry" />
        </mxCell>
        <mxCell id="y8eB7wxrnuaL9YhSBPWz-24" value="" style="endArrow=classic;html=1;rounded=0;" edge="1" parent="WIyWlLk6GJQsqaUBKTNV-1">
          <mxGeometry width="50" height="50" relative="1" as="geometry">
            <mxPoint x="320" y="410" as="sourcePoint" />
            <mxPoint x="320" y="458" as="targetPoint" />
            <Array as="points">
              <mxPoint x="320.5" y="430" />
            </Array>
          </mxGeometry>
        </mxCell>
        <mxCell id="y8eB7wxrnuaL9YhSBPWz-28" value="" style="edgeStyle=orthogonalEdgeStyle;rounded=0;orthogonalLoop=1;jettySize=auto;html=1;" edge="1" parent="WIyWlLk6GJQsqaUBKTNV-1" source="y8eB7wxrnuaL9YhSBPWz-25" target="y8eB7wxrnuaL9YhSBPWz-27">
          <mxGeometry relative="1" as="geometry">
            <Array as="points">
              <mxPoint x="270" y="520" />
              <mxPoint x="270" y="520" />
            </Array>
          </mxGeometry>
        </mxCell>
        <mxCell id="y8eB7wxrnuaL9YhSBPWz-25" value="Sign in" style="rounded=1;whiteSpace=wrap;html=1;fontSize=12;glass=0;strokeWidth=1;shadow=0;" vertex="1" parent="WIyWlLk6GJQsqaUBKTNV-1">
          <mxGeometry x="220" y="460" width="120" height="40" as="geometry" />
        </mxCell>
        <mxCell id="y8eB7wxrnuaL9YhSBPWz-26" value="Sign Up" style="rounded=1;whiteSpace=wrap;html=1;fontSize=12;glass=0;strokeWidth=1;shadow=0;" vertex="1" parent="WIyWlLk6GJQsqaUBKTNV-1">
          <mxGeometry x="414" y="460" width="120" height="40" as="geometry" />
        </mxCell>
        <mxCell id="y8eB7wxrnuaL9YhSBPWz-32" style="edgeStyle=orthogonalEdgeStyle;rounded=0;orthogonalLoop=1;jettySize=auto;html=1;exitX=0;exitY=0.5;exitDx=0;exitDy=0;" edge="1" parent="WIyWlLk6GJQsqaUBKTNV-1" source="y8eB7wxrnuaL9YhSBPWz-27">
          <mxGeometry relative="1" as="geometry">
            <mxPoint x="160" y="635" as="targetPoint" />
          </mxGeometry>
        </mxCell>
        <mxCell id="y8eB7wxrnuaL9YhSBPWz-27" value="User sign in by credentials/facebook/google" style="rhombus;whiteSpace=wrap;html=1;rounded=1;glass=0;strokeWidth=1;shadow=0;" vertex="1" parent="WIyWlLk6GJQsqaUBKTNV-1">
          <mxGeometry x="160" y="560" width="220" height="150" as="geometry" />
        </mxCell>
        <mxCell id="y8eB7wxrnuaL9YhSBPWz-29" value="" style="endArrow=classic;html=1;rounded=0;" edge="1" parent="WIyWlLk6GJQsqaUBKTNV-1">
          <mxGeometry width="50" height="50" relative="1" as="geometry">
            <mxPoint x="430" y="410" as="sourcePoint" />
            <mxPoint x="430" y="458" as="targetPoint" />
            <Array as="points">
              <mxPoint x="430.5" y="430" />
            </Array>
          </mxGeometry>
        </mxCell>
        <mxCell id="y8eB7wxrnuaL9YhSBPWz-30" value="User create account by credentails /facebook/google" style="rhombus;whiteSpace=wrap;html=1;rounded=1;glass=0;strokeWidth=1;shadow=0;" vertex="1" parent="WIyWlLk6GJQsqaUBKTNV-1">
          <mxGeometry x="380" y="560" width="220" height="150" as="geometry" />
        </mxCell>
        <mxCell id="y8eB7wxrnuaL9YhSBPWz-31" value="" style="edgeStyle=orthogonalEdgeStyle;rounded=0;orthogonalLoop=1;jettySize=auto;html=1;" edge="1" parent="WIyWlLk6GJQsqaUBKTNV-1">
          <mxGeometry relative="1" as="geometry">
            <mxPoint x="489.5" y="500" as="sourcePoint" />
            <mxPoint x="489.5" y="560" as="targetPoint" />
          </mxGeometry>
        </mxCell>
        <mxCell id="y8eB7wxrnuaL9YhSBPWz-34" value="" style="endArrow=classic;html=1;rounded=0;" edge="1" parent="WIyWlLk6GJQsqaUBKTNV-1">
          <mxGeometry width="50" height="50" relative="1" as="geometry">
            <mxPoint x="489.5" y="710" as="sourcePoint" />
            <mxPoint x="489.5" y="780" as="targetPoint" />
          </mxGeometry>
        </mxCell>
        <mxCell id="y8eB7wxrnuaL9YhSBPWz-35" value="Person who is &amp;nbsp;comapny insider and want to referre additional fields 1.Company&lt;br&gt;2.Position looking for (Checkbox for all)" style="rounded=0;whiteSpace=wrap;html=1;" vertex="1" parent="WIyWlLk6GJQsqaUBKTNV-1">
          <mxGeometry x="590" y="880" width="220" height="90" as="geometry" />
        </mxCell>
        <mxCell id="y8eB7wxrnuaL9YhSBPWz-36" value="Is company insider" style="rounded=0;whiteSpace=wrap;html=1;" vertex="1" parent="WIyWlLk6GJQsqaUBKTNV-1">
          <mxGeometry x="430" y="780" width="120" height="60" as="geometry" />
        </mxCell>
        <mxCell id="y8eB7wxrnuaL9YhSBPWz-38" value="" style="endArrow=classic;html=1;rounded=0;" edge="1" parent="WIyWlLk6GJQsqaUBKTNV-1">
          <mxGeometry width="50" height="50" relative="1" as="geometry">
            <mxPoint x="550" y="800" as="sourcePoint" />
            <mxPoint x="630" y="880" as="targetPoint" />
            <Array as="points">
              <mxPoint x="630" y="800" />
            </Array>
          </mxGeometry>
        </mxCell>
        <mxCell id="y8eB7wxrnuaL9YhSBPWz-39" value="" style="endArrow=classic;html=1;rounded=0;exitX=0.5;exitY=1;exitDx=0;exitDy=0;" edge="1" parent="WIyWlLk6GJQsqaUBKTNV-1" source="y8eB7wxrnuaL9YhSBPWz-36">
          <mxGeometry width="50" height="50" relative="1" as="geometry">
            <mxPoint x="440" y="940" as="sourcePoint" />
            <mxPoint x="490" y="920" as="targetPoint" />
          </mxGeometry>
        </mxCell>
        <mxCell id="y8eB7wxrnuaL9YhSBPWz-40" value="Yes" style="text;html=1;strokeColor=none;fillColor=none;align=center;verticalAlign=middle;whiteSpace=wrap;rounded=0;" vertex="1" parent="WIyWlLk6GJQsqaUBKTNV-1">
          <mxGeometry x="620" y="820" width="60" height="30" as="geometry" />
        </mxCell>
        <mxCell id="y8eB7wxrnuaL9YhSBPWz-42" value="No" style="text;html=1;strokeColor=none;fillColor=none;align=center;verticalAlign=middle;whiteSpace=wrap;rounded=0;" vertex="1" parent="WIyWlLk6GJQsqaUBKTNV-1">
          <mxGeometry x="430" y="860" width="60" height="30" as="geometry" />
        </mxCell>
        <mxCell id="y8eB7wxrnuaL9YhSBPWz-45" value="User is created" style="rounded=0;whiteSpace=wrap;html=1;" vertex="1" parent="WIyWlLk6GJQsqaUBKTNV-1">
          <mxGeometry x="430" y="920" width="120" height="60" as="geometry" />
        </mxCell>
        <mxCell id="y8eB7wxrnuaL9YhSBPWz-46" value="Search Bar" style="rounded=1;whiteSpace=wrap;html=1;fontSize=12;glass=0;strokeWidth=1;shadow=0;" vertex="1" parent="WIyWlLk6GJQsqaUBKTNV-1">
          <mxGeometry x="620" y="170" width="120" height="40" as="geometry" />
        </mxCell>
        <mxCell id="y8eB7wxrnuaL9YhSBPWz-47" value="" style="rounded=0;html=1;jettySize=auto;orthogonalLoop=1;fontSize=11;endArrow=block;endFill=0;endSize=8;strokeWidth=1;shadow=0;labelBackgroundColor=none;edgeStyle=orthogonalEdgeStyle;exitX=1;exitY=0.5;exitDx=0;exitDy=0;" edge="1" parent="WIyWlLk6GJQsqaUBKTNV-1" source="WIyWlLk6GJQsqaUBKTNV-3">
          <mxGeometry relative="1" as="geometry">
            <mxPoint x="770" y="60" as="sourcePoint" />
            <mxPoint x="650" y="170" as="targetPoint" />
            <Array as="points">
              <mxPoint x="650" y="60" />
            </Array>
          </mxGeometry>
        </mxCell>
        <mxCell id="y8eB7wxrnuaL9YhSBPWz-49" value="" style="endArrow=classic;html=1;rounded=0;" edge="1" parent="WIyWlLk6GJQsqaUBKTNV-1">
          <mxGeometry width="50" height="50" relative="1" as="geometry">
            <mxPoint x="679.5" y="212" as="sourcePoint" />
            <mxPoint x="679.5" y="260" as="targetPoint" />
            <Array as="points">
              <mxPoint x="679.5" y="240" />
            </Array>
          </mxGeometry>
        </mxCell>
        <mxCell id="y8eB7wxrnuaL9YhSBPWz-52" value="User is able to find by company name and open position" style="rounded=1;whiteSpace=wrap;html=1;" vertex="1" parent="WIyWlLk6GJQsqaUBKTNV-1">
          <mxGeometry x="580" y="260" width="220" height="90" as="geometry" />
        </mxCell>
      </root>
    </mxGraphModel>
  </diagram>
</mxfile>
